<mxfile host="Electron" agent="Mozilla/5.0 (X11; Linux x86_64) AppleWebKit/537.36 (KHTML, like Gecko) draw.io/26.1.1 Chrome/134.0.6998.205 Electron/35.7.5 Safari/537.36" version="26.1.1">
  <diagram name="Page-1" id="72RMwLltuVNIHcj9yNdG">
    <mxGraphModel dx="1434" dy="479" grid="1" gridSize="10" guides="1" tooltips="1" connect="1" arrows="1" fold="1" page="1" pageScale="1" pageWidth="160" pageHeight="120" math="0" shadow="0">
      <root>
        <mxCell id="0" />
        <mxCell id="1" parent="0" />
        <mxCell id="PUOBx-IIWF3kP0wz5X65-34" value="" style="group" parent="1" vertex="1" connectable="0">
          <mxGeometry x="90" y="480" width="50" height="120" as="geometry" />
        </mxCell>
        <mxCell id="PUOBx-IIWF3kP0wz5X65-35" value="" style="ellipse;whiteSpace=wrap;html=1;fillColor=none;strokeWidth=1;" parent="PUOBx-IIWF3kP0wz5X65-34" vertex="1">
          <mxGeometry width="40" height="120" as="geometry" />
        </mxCell>
        <mxCell id="PUOBx-IIWF3kP0wz5X65-36" value="" style="ellipse;whiteSpace=wrap;html=1;fillColor=#000000;strokeColor=default;align=center;verticalAlign=middle;fontFamily=Helvetica;fontSize=12;fontColor=default;" parent="PUOBx-IIWF3kP0wz5X65-34" vertex="1">
          <mxGeometry x="15" y="70" width="10" height="10" as="geometry" />
        </mxCell>
        <mxCell id="PUOBx-IIWF3kP0wz5X65-37" value="" style="ellipse;whiteSpace=wrap;html=1;fillColor=#000000;strokeColor=default;align=center;verticalAlign=middle;fontFamily=Helvetica;fontSize=12;fontColor=default;" parent="PUOBx-IIWF3kP0wz5X65-34" vertex="1">
          <mxGeometry x="15" y="100" width="10" height="10" as="geometry" />
        </mxCell>
        <mxCell id="PUOBx-IIWF3kP0wz5X65-38" value="" style="ellipse;whiteSpace=wrap;html=1;fillColor=#000000;strokeColor=default;align=center;verticalAlign=middle;fontFamily=Helvetica;fontSize=12;fontColor=default;" parent="PUOBx-IIWF3kP0wz5X65-34" vertex="1">
          <mxGeometry x="15" y="10" width="10" height="10" as="geometry" />
        </mxCell>
        <mxCell id="PUOBx-IIWF3kP0wz5X65-39" value="" style="ellipse;whiteSpace=wrap;html=1;fillColor=#000000;strokeColor=default;align=center;verticalAlign=middle;fontFamily=Helvetica;fontSize=12;fontColor=default;" parent="PUOBx-IIWF3kP0wz5X65-34" vertex="1">
          <mxGeometry x="15" y="40" width="10" height="10" as="geometry" />
        </mxCell>
        <mxCell id="PUOBx-IIWF3kP0wz5X65-44" value="" style="ellipse;whiteSpace=wrap;html=1;fillColor=none;strokeWidth=1;" parent="1" vertex="1">
          <mxGeometry x="190" y="480" width="40" height="120" as="geometry" />
        </mxCell>
        <mxCell id="PUOBx-IIWF3kP0wz5X65-33" value="" style="ellipse;whiteSpace=wrap;html=1;fillColor=none;strokeColor=#FF0000;strokeWidth=2;" parent="1" vertex="1">
          <mxGeometry x="80" y="480" width="60" height="120" as="geometry" />
        </mxCell>
        <mxCell id="PUOBx-IIWF3kP0wz5X65-41" value="" style="ellipse;whiteSpace=wrap;html=1;fillColor=none;strokeColor=#0000FF;strokeWidth=2;" parent="1" vertex="1">
          <mxGeometry x="180" y="480" width="60" height="120" as="geometry" />
        </mxCell>
        <mxCell id="PUOBx-IIWF3kP0wz5X65-45" value="" style="ellipse;whiteSpace=wrap;html=1;fillColor=#000000;strokeColor=default;align=center;verticalAlign=middle;fontFamily=Helvetica;fontSize=12;fontColor=default;" parent="1" vertex="1">
          <mxGeometry x="205" y="550" width="10" height="10" as="geometry" />
        </mxCell>
        <mxCell id="PUOBx-IIWF3kP0wz5X65-46" value="" style="ellipse;whiteSpace=wrap;html=1;fillColor=#000000;strokeColor=default;align=center;verticalAlign=middle;fontFamily=Helvetica;fontSize=12;fontColor=default;" parent="1" vertex="1">
          <mxGeometry x="205" y="580" width="10" height="10" as="geometry" />
        </mxCell>
        <mxCell id="PUOBx-IIWF3kP0wz5X65-47" value="" style="ellipse;whiteSpace=wrap;html=1;fillColor=#000000;strokeColor=default;align=center;verticalAlign=middle;fontFamily=Helvetica;fontSize=12;fontColor=default;" parent="1" vertex="1">
          <mxGeometry x="205" y="490" width="10" height="10" as="geometry" />
        </mxCell>
        <mxCell id="PUOBx-IIWF3kP0wz5X65-48" value="" style="ellipse;whiteSpace=wrap;html=1;fillColor=#000000;strokeColor=default;align=center;verticalAlign=middle;fontFamily=Helvetica;fontSize=12;fontColor=default;" parent="1" vertex="1">
          <mxGeometry x="205" y="520" width="10" height="10" as="geometry" />
        </mxCell>
      </root>
    </mxGraphModel>
  </diagram>
</mxfile>
